<svg width="150" height="150" viewBox="0 0 150 150" fill="none" xmlns="http://www.w3.org/2000/svg">
<path d="M122.373 65.5823L75.5502 91.9288L25.4115 63.7791L23 65.0814V85.5175L75.5502 114.97L122.373 88.7232V99.5423L75.5502 125.889L25.4115 97.7391L23 99.0414V102.548L75.5502 132L128 102.548V82.1115L125.589 80.8092L75.5502 108.859L28.6268 82.6124V71.7932L75.5502 98.0396L128 68.5876V48.452L125.388 46.9494L75.5502 74.8987L31.0383 50.0548L75.5502 25.1108L112.124 45.6471L115.34 43.8439V41.3395L75.5502 19L23 48.452V51.6577L75.5502 81.1097L122.373 54.7632V65.5823Z" fill="#FF3621"/>
</svg>
