<svg width="150" height="150" viewBox="0 0 150 150" fill="none" xmlns="http://www.w3.org/2000/svg">
<path d="M120.821 56.0128L93.362 28.2661C90.1099 25.1636 86.2368 22.8011 82.0032 21.338C72.6218 18.1857 63.2851 20.6463 55.7238 28.2661L28.1973 56.0128C25.1232 59.2946 22.7823 63.2038 21.3326 67.4765C18.198 76.9447 20.636 86.3676 28.1973 93.9874L55.6901 121.734C58.9367 124.837 62.8067 127.201 67.0374 128.662C69.6006 129.537 72.2865 129.988 74.9921 130C81.5873 130 87.9018 127.188 93.3171 121.734L120.799 93.9874C123.877 90.7066 126.221 86.797 127.675 82.5235C130.798 73.0553 128.36 63.6439 120.799 56.0128H120.821ZM76.6213 36.3168C78.698 36.9889 80.6122 38.0937 82.2391 39.5598L90.3618 47.7693L74.5203 63.746L58.6786 47.7579L66.8464 39.5031C69.0377 37.3033 72.1271 34.9675 76.6438 36.3055L76.6213 36.3168ZM36.1969 72.8513C36.8648 70.7535 37.9636 68.8217 39.4214 67.1818L47.5445 58.9836L63.3862 74.9716L47.5332 90.9596L39.3652 82.705C37.1743 80.505 34.8711 77.387 36.1856 72.8284L36.1969 72.8513ZM72.3969 113.649C70.3174 112.983 68.4024 111.878 66.7791 110.406L58.6786 102.299L74.5203 86.2993L90.3618 102.287L82.1942 110.542C80.003 112.742 76.9245 115.078 72.3969 113.74V113.649ZM112.844 77.194C112.176 79.2895 111.081 81.2205 109.63 82.8636L101.508 90.9596L85.6656 74.9716L101.508 58.9836L109.676 67.2271C111.866 69.4267 114.169 72.5452 112.855 77.1033" fill="#00ABE4"/>
</svg>
